
        <svg xmlns="http://www.w3.org/2000/svg" xmlns:xlink="http://www.w3.org/1999/xlink" version="1.1" width="3352.9411764705883" 
        height="2188.3117500558546" viewBox="0 0 3352.9411764705883 2188.3117500558546">
			
			<g transform="scale(17.647058823529413) translate(10, 10)">
				<defs id="SvgjsDefs1459"></defs><g id="SvgjsG1460" featureKey="aMgJeN-0" transform="matrix(0.9999900055930532,0,0,0.9999900055930532,35,-16.3578420351176)" fill="#111111"><g xmlns="http://www.w3.org/2000/svg"><path d="M53.047,85h-7.605c-1.09,0-1.973-0.883-1.973-1.973v-5.695c-4.646-0.453-9.201-1.76-12.226-3.547   c-0.752-0.445-1.122-1.332-0.909-2.18l2.33-9.275c0.149-0.596,0.567-1.088,1.132-1.332c0.562-0.244,1.207-0.211,1.745,0.09   c2.161,1.209,6.583,3.238,11.917,3.238c1.285,0,5.478-0.213,5.478-2.945c0-1.377-0.835-2.939-6.896-5.029   c-7.121-2.449-15.298-6.523-15.298-16.376c0-7.599,4.98-13.489,13.113-15.675v-5.97c0-1.09,0.884-1.973,1.974-1.973h7.605   c1.09,0,1.974,0.883,1.974,1.973v5.134c3.887,0.353,7.224,1.238,10.155,2.691c0.832,0.412,1.264,1.349,1.038,2.249l-2.251,8.958   c-0.141,0.561-0.521,1.032-1.04,1.289c-0.521,0.255-1.124,0.271-1.655,0.042l-0.599-0.263c-2.042-0.905-5.127-2.273-9.795-2.273   c-1.756,0-4.7,0.321-4.7,2.47c0,1.354,2.256,2.748,8.047,4.975c9.957,3.59,14.223,8.581,14.223,16.67   c0,7.926-5.365,14.166-13.811,16.264v6.49C55.02,84.117,54.137,85,53.047,85z M47.415,81.053h3.658v-6.111   c0-0.957,0.687-1.775,1.629-1.943c7.513-1.336,12.181-6.211,12.181-12.725c0-5.264-1.981-9.484-11.653-12.973   c-6.031-2.319-10.615-4.419-10.615-8.673c0-3.102,2.271-6.416,8.646-6.416c4.361,0,7.581,1.026,9.827,1.938l1.281-5.101   c-2.575-1.03-5.546-1.611-9.024-1.77c-1.055-0.048-1.884-0.917-1.884-1.971v-5.005h-3.659v5.561c0,0.94-0.664,1.75-1.586,1.935   c-7.218,1.447-11.527,5.999-11.527,12.177c0,5.817,3.778,9.599,12.636,12.644c4.965,1.713,9.558,3.959,9.558,8.762   c0,4.186-3.698,6.891-9.424,6.891c-4.706,0-8.78-1.338-11.566-2.594l-1.352,5.381c2.9,1.342,7.03,2.283,10.992,2.465   c1.053,0.049,1.883,0.916,1.883,1.971V81.053z"></path></g><path xmlns="http://www.w3.org/2000/svg" d="M98.026,43.883H70.254c-1.09,0-1.974-0.884-1.974-1.973c0-1.09,0.884-1.974,1.974-1.974h27.772  c1.09,0,1.974,0.884,1.974,1.974C100,42.999,99.116,43.883,98.026,43.883z"></path><path xmlns="http://www.w3.org/2000/svg" d="M22.975,43.883H1.973C0.883,43.883,0,42.999,0,41.91c0-1.09,0.883-1.974,1.973-1.974h21.001c1.09,0,1.974,0.884,1.974,1.974  C24.948,42.999,24.064,43.883,22.975,43.883z"></path><path xmlns="http://www.w3.org/2000/svg" d="M98.026,52.137H73.428c-1.09,0-1.974-0.883-1.974-1.973c0-1.09,0.884-1.973,1.974-1.973h24.599  c1.09,0,1.974,0.883,1.974,1.973C100,51.254,99.116,52.137,98.026,52.137z"></path><path xmlns="http://www.w3.org/2000/svg" d="M25.094,52.137H1.973C0.883,52.137,0,51.254,0,50.164c0-1.09,0.883-1.973,1.973-1.973h23.121  c1.09,0,1.973,0.883,1.973,1.973C27.066,51.254,26.184,52.137,25.094,52.137z"></path><path xmlns="http://www.w3.org/2000/svg" d="M98.026,60.393H76.638c-1.09,0-1.973-0.885-1.973-1.975s0.883-1.973,1.973-1.973h21.389c1.09,0,1.974,0.883,1.974,1.973  S99.116,60.393,98.026,60.393z"></path><path xmlns="http://www.w3.org/2000/svg" d="M26.182,60.393H1.973C0.883,60.393,0,59.508,0,58.418s0.883-1.973,1.973-1.973h24.208c1.089,0,1.973,0.883,1.973,1.973  S27.271,60.393,26.182,60.393z"></path></g><g id="SvgjsG1461" featureKey="8L6ael-0" transform="matrix(1.0002888335443396,0,0,1.0002888335443396,-0.2800808745848523,83.99855630925319)" fill="#111111"><path d="M3.04 5 q0.3 0 0.51 0.21 t0.21 0.51 l0 1.46 q0 0.3 -0.21 0.51 t-0.51 0.21 l-2.06 0 q-0.28 0 -0.49 -0.21 t-0.21 -0.51 l0 -1.46 q0 -0.3 0.21 -0.51 t0.49 -0.21 l2.06 0 z M11.98 5 q0.28 0 0.49 0.21 t0.21 0.51 l0 1.46 q0 0.3 -0.21 0.51 t-0.49 0.21 l-4.02 0 l0 11.36 q0 0.28 -0.21 0.49 t-0.49 0.21 l-1.54 0 q-0.3 0 -0.51 -0.21 t-0.21 -0.49 l0 -13.54 q0 -0.3 0.21 -0.51 t0.51 -0.21 l6.26 0 z M25.816000000000003 14.1 l3.02 4.62 q0.22 0.36 0.02 0.72 q-0.08 0.16 -0.25 0.26 t-0.35 0.1 l-1.82 0 q-0.18 0 -0.34 -0.09 t-0.24 -0.23 l-3.04 -4.82 l-3.56 0 l0 4.44 q0 0.28 -0.21 0.49 t-0.49 0.21 l-1.52 0 q-0.28 0 -0.49 -0.21 t-0.21 -0.49 l0 -6.58 q0 -0.28 0.21 -0.49 t0.49 -0.21 l6.16 0 q1.76 0 2.34 -1 q0.2 -0.32 0.2 -0.92 q0 -0.94 -0.62 -1.48 q-0.64 -0.58 -1.84 -0.58 l-6.24 0 q-0.28 0 -0.49 -0.21 t-0.21 -0.49 l0 -1.44 q0 -0.28 0.21 -0.49 t0.49 -0.21 l6.42 0 q2.34 0 3.74 1.32 q1.46 1.32 1.46 3.58 q0 1.46 -0.64 2.49 t-1.86 1.57 z M46.172000000000004 18.86 q0.14 0.32 -0.07 0.65 t-0.57 0.33 l-13.32 0 q-0.18 0 -0.34 -0.09 t-0.24 -0.23 q-0.22 -0.32 -0.06 -0.66 l0.62 -1.46 q0.08 -0.2 0.26 -0.32 t0.38 -0.12 l9.32 0 l-3.28 -7.84 l-2.68 6.4 q-0.08 0.2 -0.25 0.31 t-0.39 0.11 l-1.68 0 q-0.38 0 -0.6 -0.32 q-0.08 -0.14 -0.1 -0.32 t0.04 -0.34 l4.06 -9.52 q0.08 -0.2 0.25 -0.32 t0.39 -0.12 l1.92 0 q0.22 0 0.39 0.12 t0.25 0.32 z M58.648 5.52 q1.22 0.46 2.2 1.48 q2.1 2.12 2.1 5.41 t-2.1 5.43 q-0.98 1.02 -2.2 1.48 q-1.26 0.52 -2.58 0.52 l-5.66 0 q-0.28 0 -0.49 -0.21 t-0.21 -0.49 l0 -1.44 q0 -0.3 0.21 -0.51 t0.49 -0.21 l5.6 0 q1.78 0 2.89 -1.3 t1.11 -3.26 t-1.11 -3.26 t-2.89 -1.3 l-5.6 0 q-0.28 0 -0.49 -0.21 t-0.21 -0.51 l0 -1.44 q0 -0.28 0.21 -0.49 t0.49 -0.21 l5.66 0 q1.32 0 2.58 0.52 z M77.70400000000001 16.96 q0.3 0 0.5 0.21 t0.2 0.51 l0 1.46 q0 0.28 -0.2 0.49 t-0.5 0.21 l-9.88 0 q-0.28 0 -0.49 -0.21 t-0.21 -0.49 l0 -1.46 q0 -0.3 0.21 -0.51 t0.49 -0.21 l9.88 0 z M67.824 13.86 q-0.28 0 -0.49 -0.21 t-0.21 -0.49 l0 -1.5 q0 -0.28 0.21 -0.49 t0.49 -0.21 l8.98 0 q0.3 0 0.51 0.21 t0.21 0.49 l0 1.5 q0 0.28 -0.21 0.49 t-0.51 0.21 l-8.98 0 z M77.70400000000001 5 q0.3 0 0.5 0.21 t0.2 0.49 l0 1.46 q0 0.3 -0.2 0.51 t-0.5 0.21 l-9.88 0 q-0.28 0 -0.49 -0.21 t-0.21 -0.51 l0 -1.46 q0 -0.28 0.21 -0.49 t0.49 -0.21 l9.88 0 z M99.096 12.18 q1.04 0.64 1.52 1.84 q0.28 0.64 0.28 1.58 q0 1.46 -0.78 2.45 t-2.28 1.47 q-0.94 0.32 -2.22 0.32 l-6.38 0 q-0.28 0 -0.49 -0.21 t-0.21 -0.49 l0 -1.44 q0 -0.3 0.21 -0.51 t0.49 -0.21 l6.54 0 q1.16 0 1.72 -0.42 q0.48 -0.4 0.48 -1.09 t-0.5 -1.13 q-0.62 -0.54 -1.86 -0.54 l-6.38 0 q-0.28 0 -0.49 -0.21 t-0.21 -0.51 l0 -1.38 q0 -0.28 0.21 -0.49 t0.49 -0.21 l6.02 0 q0.86 0 1.34 -0.3 q0.34 -0.2 0.54 -0.58 q0.14 -0.28 0.14 -0.65 t-0.1 -0.67 q-0.08 -0.24 -0.28 -0.44 q-0.44 -0.5 -1.46 -0.5 l-6.2 0 q-0.28 0 -0.49 -0.21 t-0.21 -0.51 l0 -1.44 q0 -0.28 0.21 -0.49 t0.49 -0.21 l6.02 0 q2.48 0 3.82 1.4 q1.14 1.14 1.14 2.86 q0 1.84 -1.12 2.92 z M110.25200000000001 17.06 q0.24 0.08 0.38 0.27 t0.14 0.43 l0 1.54 q0 0.32 -0.26 0.54 q-0.2 0.16 -0.44 0.16 q-0.1 0 -0.14 -0.02 q-1.86 -0.36 -3.2 -1.72 q-1.8 -1.84 -1.8 -4.84 l0 -7.7 q0 -0.3 0.21 -0.51 t0.49 -0.21 l1.54 0 q0.3 0 0.51 0.21 t0.21 0.51 l0 7.74 q0 1.9 1.08 2.9 q0.56 0.52 1.28 0.7 z M117.15200000000002 5 q0.3 0 0.51 0.21 t0.21 0.51 l0 7.7 q0 3 -1.8 4.84 q-1.34 1.36 -3.2 1.72 q-0.04 0.02 -0.14 0.02 q-0.24 0 -0.44 -0.16 q-0.26 -0.2 -0.26 -0.56 l0 -1.54 q0 -0.22 0.14 -0.41 t0.38 -0.27 q0.76 -0.22 1.28 -0.7 q1.08 -0.96 1.08 -2.9 l0 -7.74 q0 -0.3 0.21 -0.51 t0.51 -0.21 l1.52 0 z M131.648 5.52 q1.22 0.46 2.2 1.48 q2.1 2.12 2.1 5.41 t-2.1 5.43 q-0.98 1.02 -2.2 1.48 q-1.26 0.52 -2.58 0.52 l-5.66 0 q-0.28 0 -0.49 -0.21 t-0.21 -0.49 l0 -1.44 q0 -0.3 0.21 -0.51 t0.49 -0.21 l5.6 0 q1.78 0 2.89 -1.3 t1.11 -3.26 t-1.11 -3.26 t-2.89 -1.3 l-5.6 0 q-0.28 0 -0.49 -0.21 t-0.21 -0.51 l0 -1.44 q0 -0.28 0.21 -0.49 t0.49 -0.21 l5.66 0 q1.32 0 2.58 0.52 z M149.06400000000002 5.52 q1.22 0.46 2.2 1.48 q2.1 2.12 2.1 5.41 t-2.1 5.43 q-0.98 1.02 -2.2 1.48 q-1.26 0.52 -2.58 0.52 l-5.66 0 q-0.28 0 -0.49 -0.21 t-0.21 -0.49 l0 -1.44 q0 -0.3 0.21 -0.51 t0.49 -0.21 l5.6 0 q1.78 0 2.89 -1.3 t1.11 -3.26 t-1.11 -3.26 t-2.89 -1.3 l-5.6 0 q-0.28 0 -0.49 -0.21 t-0.21 -0.51 l0 -1.44 q0 -0.28 0.21 -0.49 t0.49 -0.21 l5.66 0 q1.32 0 2.58 0.52 z M170.14000000000001 5.380000000000001 q0.1 0.18 0.09 0.38 t-0.13 0.36 l-5.54 8 l0 5.14 q0 0.28 -0.21 0.49 t-0.49 0.21 l-1.54 0 q-0.3 0 -0.51 -0.21 t-0.21 -0.49 l0 -5.86 q0 -0.2 0.14 -0.4 l5.34 -7.7 q0.1 -0.14 0.25 -0.22 t0.33 -0.08 l1.86 0 q0.2 0 0.37 0.1 t0.25 0.28 z M161.72000000000003 9.78 q-0.08 0.18 -0.25 0.28 t-0.37 0.1 l-1.86 0 q-0.36 0 -0.6 -0.3 l-2.6 -3.74 q-0.1 -0.16 -0.11 -0.36 t0.07 -0.38 t0.25 -0.28 t0.37 -0.1 l1.88 0 q0.34 0 0.58 0.3 l2.6 3.74 q0.1 0.16 0.11 0.36 t-0.07 0.38 z"></path></g>
			</g>
		</svg>
	